<svg xmlns="http://www.w3.org/2000/svg" width="168" height="88" fill="none"><rect width="167" height="87" x=".5" y=".5" stroke="#8E8F99" rx="3.5"/><path fill="#8E8F99" d="M59 60v3h-5v-6h4l1 1v1l-1 1h1Zm-4-1h3v-1h-3v1Zm2 3h1v-1h-1v-1h-2v2h2Zm8 1-2-2h-1v2h-1v-6h4l1 2v1l-2 1 2 2h-1Zm-3-3h2l1-1v-1h-3v2Zm10 2h-3v1h-2l3-6h2l2 6h-1l-1-1Zm0-1-1-3-1 3h2Zm10 2h-2l-3-4v4h-1v-6h1l3 4v-4h2v6Zm7-1-1 1h-4v-6h4l1 1a3 3 0 0 1 0 4Zm-1-1v-3h-3v4h1l2-1ZM73 23s18 6 17 14v15s-17-6-17-15V23Zm33 26c3-2 7-4 11-4v-5c-5 2-9 5-11 9Z"/><path fill="#8E8F99" d="M104 50c3-5 7-9 13-11V26s-25 9-24 21v21l2-1v-2c1-6 4-11 9-15Z"/><path fill="#8E8F99" d="m101 58 1-5a19 19 0 0 0-5 13l5-2-1-6Zm1 0 1 5c7-3 14-9 14-16v-1c-5 1-9 3-13 6l-2 6Z"/></svg>