<svg xmlns="http://www.w3.org/2000/svg" width="168" height="88" fill="none"><rect width="167" height="87" x=".5" y=".5" stroke="#8E8F99" rx="3.5"/><path fill="#8E8F99" fill-rule="evenodd" d="M82 22h-1a24 24 0 0 0-1 0c-4 0-8 1-11 3v22h1a38 38 0 0 1 11-2v3h-2a32 32 0 0 0-13 4V23a30 30 0 0 1 15-4 29 29 0 0 1 5 1v3l-3-1h-1Zm5 3h2a31 31 0 0 0 15-4v28a30 30 0 0 1-20 3V24a23 23 0 0 0 3 1Zm14 0h-1l-2 1a34 34 0 0 1-11 1h-1v23h3a27 27 0 0 0 12-3V25Z" clip-rule="evenodd"/><path fill="#8E8F99" d="M68 61a1 1 0 0 0-1 0h-1a2 2 0 0 0-1 1v5h1v1h1a2 2 0 0 0 1-2h-1v1a1 1 0 0 1-1 0v-5a1 1 0 0 1 1 0v1h1v-1a2 2 0 0 0 0-1Zm6 0a2 2 0 0 0-2 0h-1v6l1 1a2 2 0 0 0 1 0l1-1a2 2 0 0 0 0-1v-5Zm-1 5a1 1 0 0 1 0 1 1 1 0 0 1-1 0 1 1 0 0 1 0-1v-4a1 1 0 0 1 1 0v4Zm8 2v-7h-1l-1 3-1-3h-1v7h1v-4l1 2 1-2v4h1Zm6-7h-3v7h1v-3h2v-1a5 5 0 0 0 0-2v-1Zm-1 2v1h-1v-2h1v1Zm6-2h-1l-2 7h1l1-2h1v2h1l-1-7Zm-1 4v-2l1 2h-1Zm7 0-2-4v7-4h1l1 4h1v-7h-1v4Zm6-4-1 3-1-3h-1l2 4v3h1v-3l1-4h-1Zm-39 9v1h1v-2h-1v1Zm4-1-1 2h2l-1-2Zm0 1Zm4 0v1l-1-1h2l-1-1-1 1v1a1 1 0 0 0 1 0h1v-1h-1Zm4-1v2h1-1v-2Zm3 0v2-2Zm4 1-1-1v2-1l1 1v-2 1Zm3 0v-1h-1v2h2-1v-1Zm7 0h-1v-1 2-1h1v1-2 1Zm3 0h1-1 1v-1h-1v2h1-1v-1Zm4 0v-1h-1v2-1h1v1h1-1v-1Zm0 0h-1 1Zm3 0h1-1 1v-1h-1v2h1-1v-1Z"/></svg>