<svg xmlns="http://www.w3.org/2000/svg" width="168" height="88" fill="none"><rect width="167" height="87" x=".5" y=".5" stroke="#8E8F99" rx="3.5"/><path fill="#8E8F99" d="m86 43-1-2v-2l1-2 2-1h2v3h-2v-2h-1v6h1v-2h2v3h-2l-2-1Zm6 0v-6l2-1 3 1v6l-3 1-2-1Zm3 0v-6h-1l-1 1v4l1 1a1 1 0 0 0 1 0Zm4-7h2l1 6 2-6h1v8h-1v-6l-1 6h-1l-2-6v6h-1v-8Zm8 0h3c2 0 3 1 3 2 0 2-1 2-3 2h-1v4h-2v-8Zm3 3h1v-2h-2v2h1Zm5-3h2l2 8h-2v-2h-2v2h-2l2-8Zm2 5-1-3-1 3h2Zm3-5h1l3 5v-5h1v8h-1l-2-5v5h-2v-8Zm8 5-1-5h1l1 3 1-3h2l-2 5v3h-2v-3Zm-40 7h-1v3h-1v-3h-1 3Zm5 3h-1l-1-1h-1l-1 1h-1l2-3h1l2 3Zm-3-1h1v-2h-1v2Zm5 1h2v-1h-1 1v1a3 3 0 0 1-1 0h-2l-1-1v-1l1-1h1a3 3 0 0 1 1 0 2 2 0 0 1 1 0h-1a2 2 0 0 0-1 0h-1v3a1 1 0 0 0 1 0Zm6 0h2-3v-3h1v3Zm4 0h-1v-3h1v3Zm2-3 2 2v-2h1v3h-1l-2-3v3h-1v-3h1Zm7 0h-2v1h2v1h-2v1h2-2v-3h2ZM53 25l26 6v22l-26-6V25Zm-1-2v25l29 7V30l-29-7Z"/><path fill="#8E8F99" d="m67 67-29-7V34l29 8v25Z"/><path fill="#8E8F99" d="m52 24 26 7-11 9-26-6 11-10Zm0-1L38 34l29 8 14-12-29-7Zm17 42 12-10-12-3v13Z"/></svg>