<svg xmlns="http://www.w3.org/2000/svg" width="168" height="88" fill="none"><rect width="167" height="87" x=".5" y=".5" stroke="#8E8F99" rx="3.5"/><path fill="#8E8F99" d="m69 65-1 1h-1l-1-1a2 2 0 0 1 0-2l1-1a3 3 0 0 1 2 0v1h-2l-1 1v1a1 1 0 0 0 1 0l1 1a1 1 0 0 0 1-1Zm6-1v1l-1 1h-2v-1h-1v-2h1v-1h2l1 1a2 2 0 0 1 0 1Zm0 0a1 1 0 0 0-1-1h-2v2a1 1 0 0 0 1 0h2v-1Zm5 1 1-3h1v4h-1v-3l-1 2h-1l-1-2v3h-1v-4h1l1 3h1Zm5 0v1h-1v-4h2l1 1v1l-1 1h-1Zm0-1h1l1-1h-2v1Zm7 2-1-1h-2v1h-1l2-4h1l1 4Zm-2-1h1l-1-2v2Zm5-3 2 3v-3h1v4h-1l-2-3v3h-1v-4h1Zm7 3v1h-1v-1l-1-3v1l1 1h1l1-2-1 3Zm-23-9h1c4-1 7-3 9-6s3-7 3-10l-4-4c1 4 1 8-1 11-2 4-4 7-8 9Z"/><path fill="#8E8F99" d="M78 56c4-2 7-5 8-9 2-4 2-8 1-11l-6-5a21 21 0 0 1-3 25Zm20-12c-1 4-4 7-7 10l-4 2 8-4 5-6-2-2Z"/><path fill="#8E8F99" d="m97 43-4-2-3 9-8 7 2-1c3-1 6-2 8-5 3-2 4-5 5-8ZM78 28l-4-3-9 6-3 9c0 4 1 7 4 10s6 5 11 6c3-4 5-9 6-13 0-5-2-10-5-15Zm28 15c0-4-2-9-6-12-3-3-8-4-13-4l-7 1 25 21 1-6Z"/></svg>