<svg xmlns="http://www.w3.org/2000/svg" width="168" height="88" fill="none"><rect width="167" height="87" x=".5" y=".5" stroke="#8E8F99" rx="3.5"/><path fill="#8E8F99" d="M56 38c-2 0-4 1-4 3 0 3 2 4 4 4s4-1 4-4c0-2-2-3-4-3Zm32-2c0-3-1-6-4-8-2-2-5-3-9-3-3 0-6 1-8 3-3 2-4 5-4 8v17s25-3 25-17ZM43 58l3 6 6 2 6-2 2-6V47s-17 1-17 11Zm9 2h-2v-1l-1-1 1-1 1-1h2l1 1a2 2 0 0 1-1 3h-1Zm16-3v4h-1v-4h1Zm1 1v1h-2v-1h2Zm1-1h-3 3Zm4 2-1 1-1 1h-1l-1-1v-3h1l1-1v1h1v1l1 1Zm-1 0v-1h-1a1 1 0 0 0 0-1h-1v3h1l1-1Zm3 1v-1h-1v-1h-1v-1h1a2 2 0 0 1 2 0v1h-1v-1h-1v1h1v1h1a1 1 0 0 1 0 1v1h-1a2 2 0 0 1-1 0l-1-1v-1h1v1h1Zm4-3v4h-1v-4h1Zm1 0h-3 3Zm3 3v1h-2v-1h2Zm-2-3v4-4Zm2 1v1h-2v-1h2Zm0-1h-2 2Zm1 0h3v2h-2 1v-2h-1v4h-1v-4Zm2 4-1-2h1l1 2h-1Zm5-2h-1 1v-1h1l-1-1h-1v4h-1v-4h3a1 1 0 0 1 1 1l-1 1h-1Zm5 1v1h-2v-1h2Zm-2-3v4h-1v-4h1Zm2 1v1h-2v-1h2Zm0-1h-2 2Zm2 0v4-4Zm2 0h-4 4Zm3 3v1h-2v-1h2Zm-2-3v4h-1v-4h1Zm2 1v1h-2v-1h2Zm0-1h-2 2Zm1 0h3v1l-1 1h-2 1l1-1v-1h-1v4h-1v-4Zm2 4-1-2h1l1 2h-1Zm4-1v-1h-2v-1h-1l1-1a2 2 0 0 1 2 0l1 1h-1v-1h-2v1h1l1 1h1v1l-1 1a2 2 0 0 1-2 0v-1l-1-1h1v1h2Z"/></svg>