<svg xmlns="http://www.w3.org/2000/svg" width="40" height="40" fill="none"><path fill="#4D5AE5" d="M40 20A20 20 0 0 1 6 34 20 20 0 0 1 20 0a20 20 0 0 1 20 20Z"/><g fill="#F4F4FD" clip-path="url(#clip0_609205_201)"><path d="M28 17v-2l-1-2-2-1h-2a55 55 0 0 0-8 0l-2 1-1 2v2a55 55 0 0 0 0 8l1 2 2 1h2a58 58 0 0 0 8 0l3-3v-2a59 59 0 0 0 0-6Zm-1 6-1 2-1 1-2 1a56 56 0 0 1-8-1h-1v-3a56 56 0 0 1 0-8v-1h3a56 56 0 0 1 8 0h1v1l1 2a56 56 0 0 1 0 6Z"/><path d="M20 16a4 4 0 1 0 0 8 4 4 0 0 0 0-8Zm0 7a3 3 0 1 1 0-6 3 3 0 0 1 0 6ZM25 16a1 1 0 1 1-2 0 1 1 0 0 1 2 0Z"/></g><defs><clipPath id="clip0_609205_201"><path fill="#fff" d="M12 12h16v16H12z"/></clipPath></defs></svg>