<svg width="168" height="88" fill="none" xmlns="http://www.w3.org/2000/svg"><rect x=".5" y=".5" width="167" height="87" rx="3.5" stroke="#8E8F99"/><path fill-rule="evenodd" clip-rule="evenodd" d="m70 23 7 7H64v32h34V50l7 6V23H70Zm28 26L78 30h20v19Zm-6 8H69V36h2v20h21v1ZM74 68l-1-2h-1l1 3v1h1v-1l1-3-1 2Zm3-2 1 4-1-1h-1v1h-1l1-4h1Zm-1 3h1v-2l-1 2Zm4-1v-1l1-1h1a1 1 0 0 1 0 1v1h-1l1 1a1 1 0 0 0 0-1h1v1a2 2 0 0 1-1 0l1 1h-1a2 2 0 0 1-2 0v-2Zm1 0v1a1 1 0 0 0-1 0h1v1a1 1 0 0 0 1-1l-1-1Zm0 0v-1 1Zm6 1h-2v-2h1l1 1v-1l-1-1h-1v1h-1v2l1 1a1 1 0 0 0 1 0l1-1Zm4-1-1-1v-1h-2v4a1 1 0 0 0 1 0h1v-1l1-1Zm-1 0v1h-2v-2h2v1Z" fill="#8E8F99"/></svg>